<mxfile host="app.diagrams.net" modified="2023-10-25T06:25:21.825Z" agent="Mozilla/5.0 (Windows NT 10.0; Win64; x64) AppleWebKit/537.36 (KHTML, like Gecko) Chrome/117.0.0.0 Safari/537.36" etag="G-nWvzF76t-9nHdrbuVO" version="22.0.7" type="device">
  <diagram name="Page-1" id="7Ifrr6vN5XmLmGgwtC3x">
    <mxGraphModel dx="880" dy="478" grid="1" gridSize="10" guides="1" tooltips="1" connect="1" arrows="1" fold="1" page="1" pageScale="1" pageWidth="850" pageHeight="1100" math="0" shadow="0">
      <root>
        <mxCell id="0" />
        <mxCell id="1" parent="0" />
        <mxCell id="bmXHvkkLKUYrimwU2o8d-1" value="Employee&amp;nbsp;&lt;br&gt;Management&amp;nbsp;" style="rounded=0;whiteSpace=wrap;html=1;" vertex="1" parent="1">
          <mxGeometry x="270" y="40" width="120" height="60" as="geometry" />
        </mxCell>
        <mxCell id="bmXHvkkLKUYrimwU2o8d-2" value="Requirments&amp;nbsp;" style="rounded=0;whiteSpace=wrap;html=1;" vertex="1" parent="1">
          <mxGeometry x="280" y="160" width="120" height="60" as="geometry" />
        </mxCell>
        <mxCell id="bmXHvkkLKUYrimwU2o8d-5" value="" style="edgeStyle=orthogonalEdgeStyle;rounded=0;orthogonalLoop=1;jettySize=auto;html=1;entryX=-0.025;entryY=0.4;entryDx=0;entryDy=0;entryPerimeter=0;" edge="1" parent="1" source="bmXHvkkLKUYrimwU2o8d-3" target="bmXHvkkLKUYrimwU2o8d-1">
          <mxGeometry relative="1" as="geometry">
            <mxPoint x="185" y="70" as="targetPoint" />
          </mxGeometry>
        </mxCell>
        <mxCell id="bmXHvkkLKUYrimwU2o8d-3" value="Actor" style="shape=umlActor;verticalLabelPosition=bottom;verticalAlign=top;html=1;outlineConnect=0;" vertex="1" parent="1">
          <mxGeometry x="100" y="40" width="30" height="60" as="geometry" />
        </mxCell>
        <mxCell id="bmXHvkkLKUYrimwU2o8d-6" value="" style="edgeStyle=orthogonalEdgeStyle;rounded=0;orthogonalLoop=1;jettySize=auto;html=1;entryX=0;entryY=0.5;entryDx=0;entryDy=0;" edge="1" parent="1" target="bmXHvkkLKUYrimwU2o8d-2">
          <mxGeometry relative="1" as="geometry">
            <mxPoint x="140" y="80" as="sourcePoint" />
            <mxPoint x="195" y="80" as="targetPoint" />
          </mxGeometry>
        </mxCell>
        <mxCell id="bmXHvkkLKUYrimwU2o8d-8" value="Amazon" style="rounded=0;whiteSpace=wrap;html=1;" vertex="1" parent="1">
          <mxGeometry x="100" y="300" width="120" height="60" as="geometry" />
        </mxCell>
        <mxCell id="bmXHvkkLKUYrimwU2o8d-9" value="DataBase" style="shape=cylinder3;whiteSpace=wrap;html=1;boundedLbl=1;backgroundOutline=1;size=15;" vertex="1" parent="1">
          <mxGeometry x="470" y="280" width="60" height="80" as="geometry" />
        </mxCell>
        <mxCell id="bmXHvkkLKUYrimwU2o8d-10" value="" style="endArrow=classic;startArrow=classic;html=1;rounded=0;entryX=0;entryY=0;entryDx=0;entryDy=52.5;entryPerimeter=0;" edge="1" parent="1" target="bmXHvkkLKUYrimwU2o8d-9">
          <mxGeometry width="50" height="50" relative="1" as="geometry">
            <mxPoint x="210" y="330" as="sourcePoint" />
            <mxPoint x="260" y="280" as="targetPoint" />
            <Array as="points">
              <mxPoint x="410" y="333" />
            </Array>
          </mxGeometry>
        </mxCell>
        <mxCell id="bmXHvkkLKUYrimwU2o8d-11" value="Login/Order/Purchase/" style="text;html=1;align=center;verticalAlign=middle;resizable=0;points=[];autosize=1;strokeColor=none;fillColor=none;" vertex="1" parent="1">
          <mxGeometry x="220" y="308" width="140" height="30" as="geometry" />
        </mxCell>
        <mxCell id="bmXHvkkLKUYrimwU2o8d-16" value="" style="edgeStyle=orthogonalEdgeStyle;rounded=0;orthogonalLoop=1;jettySize=auto;html=1;" edge="1" parent="1" source="bmXHvkkLKUYrimwU2o8d-12" target="bmXHvkkLKUYrimwU2o8d-13">
          <mxGeometry relative="1" as="geometry" />
        </mxCell>
        <mxCell id="bmXHvkkLKUYrimwU2o8d-12" value="UI" style="rounded=0;whiteSpace=wrap;html=1;" vertex="1" parent="1">
          <mxGeometry x="90" y="410" width="120" height="60" as="geometry" />
        </mxCell>
        <mxCell id="bmXHvkkLKUYrimwU2o8d-17" value="" style="edgeStyle=orthogonalEdgeStyle;rounded=0;orthogonalLoop=1;jettySize=auto;html=1;" edge="1" parent="1" source="bmXHvkkLKUYrimwU2o8d-13" target="bmXHvkkLKUYrimwU2o8d-14">
          <mxGeometry relative="1" as="geometry" />
        </mxCell>
        <mxCell id="bmXHvkkLKUYrimwU2o8d-13" value="Middle Layer" style="rounded=0;whiteSpace=wrap;html=1;" vertex="1" parent="1">
          <mxGeometry x="280" y="410" width="120" height="60" as="geometry" />
        </mxCell>
        <mxCell id="bmXHvkkLKUYrimwU2o8d-14" value="DataBase" style="shape=cylinder3;whiteSpace=wrap;html=1;boundedLbl=1;backgroundOutline=1;size=15;" vertex="1" parent="1">
          <mxGeometry x="470" y="400" width="60" height="80" as="geometry" />
        </mxCell>
        <mxCell id="bmXHvkkLKUYrimwU2o8d-15" value="Login/Order/Purchase/" style="text;html=1;align=center;verticalAlign=middle;resizable=0;points=[];autosize=1;strokeColor=none;fillColor=none;" vertex="1" parent="1">
          <mxGeometry x="230" y="318" width="140" height="30" as="geometry" />
        </mxCell>
      </root>
    </mxGraphModel>
  </diagram>
</mxfile>
